<?xml version="1.0" encoding="utf-8"?>
<!-- Generator: Adobe Illustrator 27.6.1, SVG Export Plug-In . SVG Version: 6.00 Build 0)  -->
<svg version="1.1" id="Layer_1" xmlns="http://www.w3.org/2000/svg" xmlns:xlink="http://www.w3.org/1999/xlink" x="0px" y="0px"
	 viewBox="0 0 1920 1080" style="enable-background:new 0 0 1920 1080;" xml:space="preserve">

<g>
	<g>
		<path class="st0" d="M976,255.2c9.4-0.3,18.8-0.5,28.2-0.8c1.5,0,2.9-0.3,4.4-0.3c16,0,32-0.5,48,0.2c7.7,0.3,15.2,2.9,22.8,4.6
			c5.2,1.2,10.6,1.9,15.5,3.9c6.7,2.9,13.2,6.2,19.2,10.4c8.6,6.1,17.3,12.4,24.8,19.8c9,8.8,17.6,18.4,21.1,31
			c2.5,8.9,4.3,17.9,6.1,27c2,10.3-0.3,20.1-5.1,29.1c-2.4,4.6-6.3,8.4-9.7,12.3c-8.7,10.1-17.6,20.1-26.2,30.3
			c-0.6,0.7-0.6,2.9,0,3.7c8.5,10.4,17.5,20.5,25.8,31.1c7.2,9.2,13.7,19,20.6,28.5c2.7,3.7,2.7,7.6,1.3,11.9
			c-1.4,4.5-2.2,9.1-3.4,14.6c-9.2-0.4-18.7-0.9-28.2-1.3c-5-0.2-10-0.3-15-0.3c-10.3,0-20.7-0.2-31,0.1c-17.3,0.5-34.7,0.7-52,2.4
			c-18.5,1.9-37,1.5-55.5,1.7c-3.4,0-6.7-0.9-11.4-1.6c-0.2-16.9-0.7-34.3-0.4-51.6c0.2-13.9-2.9-27.2-5.2-40.7
			c-1-6-0.5-12.2-0.6-18.3c0-2.1,0.8-4.2,0.8-6.3c0.4-10.2,1.3-20.5,0.9-30.7c-0.3-10.6-1.9-21.2-2.9-31.7c-0.5-5.1-0.6-10.2-1-15.2
			c-0.6-6.8-1.8-13.7-1.8-20.5c0-12.2-2.9-24.7,2.9-36.3c1.2-2.5,3.2-4.5,4.9-6.8c0.2,0.4,0.4,0.8,0.6,1.3
			C975,256,975.5,255.6,976,255.2z M1118,300.8c-0.3-0.3-0.6-0.5-0.9-0.8c-2.6-2-5-4.2-7.8-5.9c-15.4-9.5-32-16-49.5-20.1
			c-8.6-2-17-5-26.2-3.6c-6,0.9-12.2-0.5-18.3,0.2c-6.8,0.8-13.5,3.3-20.3,4.2c-3.7,0.4-5.1,1.9-6.1,5c-5,15.5-3.1,31.3-1.9,47
			c0.8,10.4,3,20.7,3.8,31.1c1.2,14.7,0.4,29.3,1.5,44.1c1.9,25.3,1.2,50.8,1.5,76.2c0.1,9.8,0,9.8,9.9,10.9c0.5,0.1,1,0.1,1.5,0.1
			c10.7,1.3,21.4,3.5,32.1,3.6c31,0.5,62,0.2,92.9,0.2c1.8,0,3.6,0,5.9,0c-0.3-1.6-0.3-2.9-0.7-4.1c-6.5-19.2-19.7-34.2-31.8-49.9
			c-4.9-6.3-9.2-13.2-13.1-20.1c-2.3-4.2-0.2-8.6,4.3-10.3c3.6-1.4,7.2-3,10.9-3.5c9.8-1.4,16.1-6.7,21.7-14.7
			c11.1-15.8,15-33,12.3-51.7C1137.7,323.3,1130.2,310.6,1118,300.8z"/>
		<path class="st0" d="M865.1,691.2c14.1,18,27.7,35.5,41.4,53c4.9,6.2,6.5,12.7,3.6,20.3c-1.1,3-1.6,6.2-2.1,8.5
			c-13.8,0-27.2,0-40.6,0c-7.3,0-14.7-0.2-22,0c-16.7,0.5-33.3,1.2-50,2c-6,0.3-12,1.7-18,1.8c-15.7,0.5-31.5,2.5-47.2-0.7
			c-3.6-0.7-4.1-2-4.2-5.1c-0.2-19.1-0.2-38.1-1.1-57.2c-0.4-8.3-2.5-16.6-4.3-24.7c-1.5-6.8-0.3-13.4,0-20.1c0-0.8,0.5-1.6,0.5-2.4
			c0.4-10.7,1.2-21.5,0.9-32.2c-0.3-9.3-2-18.5-2.9-27.7c-0.5-4.9-0.7-9.8-1-14.7c-0.7-9.7-1.3-19.3-2.1-29
			c-0.7-8.5,0.3-16.7,3.2-24.6c1.1-3,3.1-5.5,7.4-5.5c12.6,0.1,25.1-0.5,37.7-0.9c8.8-0.3,17.5-1.2,26.2-0.9
			c17.9,0.6,35.8,2.4,52.1,10.5c9.5,4.7,18.6,10.9,26.8,17.6c7.6,6.3,14.2,14,20.7,21.5c7.7,8.9,10.3,20.1,12.8,31.2
			c1.8,8.1,3,16.2,1.3,24.8c-1.9,9.9-6.4,17.8-13.4,24.9c-7,7.1-13.3,14.8-19.9,22.3C868.7,686.5,866.7,689.2,865.1,691.2z
			 M877.4,756.4c-1.5-4.1-2.6-7.5-4.1-10.7c-7.1-15.4-18-28.1-28.2-41.4c-4.4-5.7-8.1-12.1-11.6-18.4c-1.5-2.7-1.1-6.3,2.2-7.8
			c4.6-2,9.3-3.7,14.1-5c5.3-1.4,10.4-2.6,13.9-7.2c1.6-2.1,3.5-4,5-6.1c11.2-16.1,14.7-34,10.5-53c-4.6-20.8-19.1-33.3-37.1-42.7
			c-15-7.8-30.9-12.8-47.5-15.9c-6.9-1.3-14-2.3-20.9-1.8c-10.5,0.8-20.9,3-31.3,4.8c-1.3,0.2-2.9,1.4-3.4,2.5
			c-4.6,12.1-5.2,24.7-4,37.4c1.2,12.8,3.8,25.5,4.8,38.3c1.2,15.4,1.6,30.8,1.9,46.2c0.3,23.8,0.1,47.6,0.4,71.4
			c0,1.7,1.4,4.7,2.4,4.8c11.8,1.7,23.7,3.4,35.6,4.1c12.7,0.7,25.4,0.5,38.1,0.5C837.5,756.5,856.8,756.4,877.4,756.4z"/>
		<path class="st0" d="M828,246.2c0.3-0.2,0.6-0.2,0.9-0.3c0.4-0.3,0.7-0.5,1.1-0.8c3.5-0.6,6.9-1.2,10.5-1.9
			c2.8,17.2,10.3,33,17.9,48.7c1.7,3.6,3,7.4,4.6,11.1c0.6,0.6,1.2,1.2,1.9,1.8c8,13.9,16.5,27.6,24,41.8
			c7.3,13.9,13.3,28.6,20.4,42.6c5.3,10.4,11.2,20.6,17.3,30.5c11.2,18.4,23,36.4,33.9,55c3.1,5.2,3.7,11.9,5.6,17.8
			c3.5,10.6-2.8,24.9-16.6,25.3c-11.5,0.4-23,2-34.5,1.8c-15.4-0.3-30.8-2-46.3-2.8c-10.4-0.6-20.8-0.6-31.2-1.1
			c-13-0.6-26-1.6-39-1.9c-9.1-0.2-18.2,1.4-27.2,0.6c-7.7-0.7-15.2-3.6-22.7-5.7c-3.1-0.8-4-2.8-2.9-6c3.9-11.7,7.7-23.4,11.4-35.2
			c5.8-18.1,11.5-36.2,17.2-54.4c7.6-23.9,15.2-47.8,22.9-71.8c3.6-11.3,7.3-22.6,10.9-34c6-19,12-38.1,18-57.1
			c0.4-1.2,0.8-2.4,1.3-3.6C827.5,246.7,827.7,246.5,828,246.2z M942.1,500.7c-0.2-1.2-0.1-1.9-0.4-2.4c-6.8-16-13.3-32.1-20.6-47.8
			c-9.6-20.5-19.7-40.8-29.8-61c-7.4-14.7-15.3-29.2-22.9-43.8c-8.8-16.8-17.6-33.5-26.2-50.4c-2.1-4.1-3.6-8.4-5.4-12.6
			c-0.5,0-0.9,0-1.4,0c-2.3,5.5-4.6,11-6.9,16.5c-8.9,32.7-21.1,64.5-31.6,96.8c-10.5,32.4-22,64.5-33.3,97.6
			c7.7,0.8,14.6,2,21.5,2.2c22.4,0.6,44.8,0.7,67.2,1.3c11.2,0.3,22.4,1.3,33.5,1.9c4.8,0.3,9.5,0.6,14.3,1
			C913.9,501.2,927.7,503.2,942.1,500.7z"/>
		<path d="M1181.4,393c-1.5-14.9-3-29.8-4.4-44.7c-0.7-6.8-1.2-13.6-1.8-20.3c0.5-0.4,1-0.9,1.5-1.3c-0.8-0.6-1.7-1.1-2.5-1.7
			c-0.7-7-1.5-13.9-2.1-20.9c-0.8-9.6-1.2-19.3-2.1-28.9c-0.8-8.4-1.9-16.7-2.9-25c-0.3-2.9,0.9-4.3,3.7-5.4
			c7.7-3.1,15.4-1.2,23.1-0.4c5.4,0.5,10.8,1.6,16.2,2.6c7,1.3,14,2.4,20.8,4c11.8,2.8,23.4,5.9,35.1,8.9c-0.1,0.9-0.2,1.8-0.2,2.7
			c1.4-0.5,2.8-1,4.1-1.5c1,0.3,2,0.7,3,1c-0.1,2.2,0,4.1,3.4,3.6c-0.2,0.2-0.7,0.7-1.3,1.1c0.9,0.7,1.8,1.4,2.7,2.2
			c0.4-0.4,0.9-0.9,1.3-1.3c-0.7-0.7-1.5-1.4-2.7-1.9c-0.4-0.7-0.4-1.7-0.4-2.6c7.9,3.7,15.8,7.4,23.7,11c1.7,0.8,3.6,1.3,5.3,2
			c0.7,0.9,1.3,1.9,2,2.8c0.1,1.1,0.1,2.2,0.2,3.1c2.5,0.3,4.6,0.6,6.8,0.9c0.3,0,0.7,0,1,0c0-0.4,0-0.7,0-1.1c4,2.5,8,4.9,12,7.4
			c0.7,0.5,1.4,1.1,2.1,1.6c3.7,2.7,8.4,4.3,9.3,9.8c0.1,0.6,2.1,1,3.2,1.4c1.8,0.7,3.9,1.1,5.2,2.3c10.9,10.3,21.4,21,28.1,34.6
			c6.5,13.2,11.8,26.8,12.1,41.8c0.1,7.6,0.6,15.4-0.2,22.9c-0.6,5.9-2.9,11.7-4.4,17.5c-1.4,5.1-2.7,10.3-4.5,15.3
			c-0.6,1.7-2.3,3-4.1,5.2c-0.1,0.6-0.4,2.5-0.7,4.3c-0.3,0.7-0.7,1.3-1,2c-2.7,3.7-5.4,7.4-8.1,11c-0.5-1-1-2-1.5-2.9
			c-2.1,1.7-3.8,2.8-5.2,4.3c-1.8,1.9-3,4.1,0.7,5.6c-0.9,1-1.9,1.9-2.8,2.9c-2.8,0.8-6.2,0.8-8.2,2.5c-2.5,2.1,0.3,2.5,2.1,2.7
			c-3.4,2.7-6.7,5.4-10.1,8c-1.1-3.4-1-3.3-3.1-1.6c-0.8,0.7-2.1,0.8-2.6,1.6c-1,1.5-1.6,3.3-2.3,4.9c-12,5.3-24,10.5-36,15.8
			c-1.1-0.5-2.2-1.1-3.2-1.6c-0.2,0.9-0.5,1.9-0.7,2.8c-1,0.3-2,0.5-3.1,0.8c-0.5-0.4-0.9-0.8-1.4-1.3c0.2,0.5,0.3,1,0.5,1.5
			c-3,0.7-6,1.4-9.1,2.1c-0.6-1-1.1-2-1.7-3c-0.8,1.2-1.6,2.4-2.3,3.7c-4.6,0.7-9.3,1.5-13.9,2.2c-0.4,0.2-0.7,0.5-1.1,0.7
			c-1,0-2,0.1-3,0.1c-1.1-2.3-2.3-2.7-3.4,0c-1.2,0-2.4-0.1-3.6-0.1c0.5-0.6,1-1.1,1.5-1.7c-0.3-0.2-0.7-0.4-1-0.6
			c-0.3,0.8-0.7,1.6-1,2.4c-5.2,0.3-10.3,0.7-15.5,1c-0.7-0.6-1.3-1.2-2-1.8c-0.7,0.6-1.3,1.2-2,1.8c-0.7,0-1.3,0-2,0.1
			c-0.9-1.2-2-3.6-2.5-3.5c-1.6,0.4-3,1.8-4.5,2.8c-6.3-1.1-12.6-2.2-19-3.3c0.4-4.8-1.1-6.3-6.8-6.8c-0.6-3.8-1.4-7.5-1.9-11.4
			c-0.8-6.5-1.4-13.1-2.1-19.6c0.9-0.9,1.8-1.9,2.6-2.8c-1.2-0.7-2.5-1.5-3.7-2.2c-1-8-2.2-16-3.1-24c-0.8-7.4-1.4-14.9-2-22.3
			c-0.3-3.9-0.6-7.8-0.8-11.7C1186.2,403.7,1185.3,396.8,1181.4,393z M1340.6,458.2c0.6,0.1,1.1,0.3,1.7,0.4c-0.1-0.5-0.2-1-0.3-1.5
			c6.4-8.4,14.7-15.6,18.1-26.1c0.6-1.9,2-3.6,2.9-5.5c3.6-7.4,6.5-15,7.1-23.4c0.2-2.3,1.9-4.6,1.8-6.9c-0.3-6.2-0.8-12.4-2-18.4
			c-1.4-7.4-2.9-14.9-5.7-21.8c-3.3-8-8.1-15.3-12.2-22.9c2.2-3-0.1-2.9-2.1-3c-0.3-0.3-0.6-0.6-1-0.9c0.8-1.1,1.5-2.2,2.4-3.3
			c-0.6-1.5-1.3-3-2-4.4c-1.9,0.1-3.2-0.9-4.6-1.3c-1.2-0.3-2.5,0-3.8,0c-0.7-0.4-1.3-0.9-2-1.3c-0.2-0.2-0.5-0.5-0.7-0.7
			c-0.4-0.4-0.8-0.8-1.3-1.2c-0.4-0.3-0.8-0.5-1.2-0.8c-13.1-10.4-26.1-21.1-42.1-26.7c-6.9-2.4-12.9-7.2-20.3-8.4
			c-0.9-0.1-1.6-1-2.4-1.5c-0.8-0.5-1.9-1.6-2.4-1.4c-4.4,1.8-7.1-1.4-10.3-3.3c-1.2-0.7-2.7-1.7-4-1.5c-9.8,1.3-18-4.5-27.3-5.5
			c-0.3-4.6-4.3-3.8-7-4.6c-0.7-0.2-2,1.7-3,2.6c-6.7-0.8-13-4.5-20-3c-2.1-2.5-4.2-5-6.9-8.3c-1.1,3.2-1.6,4.8-2.1,6.3
			c-1.9,0.4-3.9,0.8-5.1,1.1c0.8,3.3,1.7,5.9,2,8.7c0.3,2.8-0.8,6,0.2,8.4c3.9,8.7,3.3,18,4.7,27c-0.6,0.4-1.1,0.8-1.7,1.3
			c0.6,0.6,1.1,1.2,1.7,1.7c0.3,2,0.7,4,1,6c-0.5,0.3-1,0.7-1.4,1c0.5,0.3,1,0.7,1.4,1c0.1,2.3,0,4.7,0.2,7c1.3,12.7,2.6,25.3,4,38
			c0.3,1.7,0.5,3.4,0.8,5.1c0.1,1.7,0.2,3.3,0.2,5c0.3,1.3,0.5,2.7,0.8,4c0,1.3,0,2.7,0,4c-0.8,0.3-1.7,0.5-2.5,0.8
			c0.1,0.3,0.1,0.5,0.2,0.8c0.9,0.1,1.7,0.2,2.6,0.4c0.4,2.3,0.6,4.7,1.4,6.9c1.4,4.2,3.6,8.2,4.5,12.5c2.9,13.8,5.3,27.7,7.9,41.6
			c-2.7,1.5-2.7,2.8,0.2,4c1,7.2,2,14.4,3,21.5c1,7.5,1.1,15.1,4.3,22.3c2.5,5.6,9,9.7,14.9,8c14.5-4.2,29.2-7.9,42.8-14.7
			c0.9,0.4,1.9,1.2,2.8,1.2c1.2,0.1,2.4-0.3,3.5-0.8c2.3-1,4.4-2.3,6.7-3.4c4-0.4,8-0.8,12-1.3c1.6,1.3,3.1,2.7,4.7,4
			c0.8-1.9,1.6-3.8,2.3-5.6c2.3-0.8,4.6-1.5,6.9-2.3c0.4-0.2,0.7-0.5,1.1-0.7c1-0.3,2-0.6,3-1c1.2,0.9,2.4,2.6,3.5,2.5
			c3.3-0.4,3.7-3.1,3.5-5.9c1.3-0.9,2.7-1.8,4-2.7c0.3,0.8,0.7,1.7,1,2.5c0.7-0.5,1.5-0.9,2-1.5c0.8-1,1.3-2.2,2-3.2
			c0.3,0,0.7,0,1,0c3.4-0.8,6.4-2,4.2-6.4C1340.2,458.4,1340.4,458.2,1340.6,458.2z"/>
		<path class="st0" d="M585.4,615.9c-13.3,1-26.5,2.5-39.7,2.9c-7.6,0.2-15.3-1-22.8-2.2c-1.8-0.3-4.4-3-4.6-4.8
			c-1.4-12-2.6-24.1-3-36.2c-0.2-6.8,0.8-13.7,2.1-20.4c0.6-3.2,2.7-5.6,6.9-6.3c12.5-2.2,24.9-5.3,37.4-7.6
			c6.7-1.2,13.6-1.4,20.4-2.3c10.6-1.5,21.1-3.4,31.7-4.8c5.4-0.7,10.8-1,16.2-1.1c16.8-0.4,33.6-0.8,50.3-0.8c4.8,0,9.8,1,14.4,2.3
			c2.3,0.7,5,2.8,5.8,5c2,5.6,3.5,11.5,4.4,17.4c1.1,6.9,2.3,14,1.9,21c-0.6,11.1-2.4,22.1-4,33c-0.6,4-2.6,6.5-7.7,6.2
			c-9.1-0.5-18.3-0.3-27.5-0.1c-8.1,0.1-16.2,0.5-24.2,1c-1.2,0.1-3.1,1.5-3.3,2.5c-2.4,11.3-3.6,22.7-3.2,34.2
			c0.6,17.8,0.6,35.6,1.1,53.3c0.3,9.2,2.2,18.4,1.7,27.5c-0.6,11-3.2,21.9-4.6,32.8c-0.8,6.5-5.1,8.1-10.4,8.4
			c-8.7,0.5-17.5,0.9-26.2,1c-9.5,0.2-12.6-2.5-13.4-11.9c-0.9-11.8-2-23.7-1.9-35.5c0.2-22.7,1.1-45.3,1.9-68
			c0.4-10.5,1.5-20.9,1.8-31.4C587,626.7,586,622.1,585.4,615.9z M532,559.3c0,11.1-0.2,21.9,0.1,32.7c0.1,4,1.8,8.6,6.1,9.7
			c4.7,1.2,9.8,1.4,14.6,1c14-1,28-2.9,42-3.7c9-0.5,11.7,3.4,9.5,12.1c-0.2,0.8-0.3,1.6-0.4,2.4c-0.4,11.3-0.9,22.5-1,33.8
			c-0.2,29.6-0.2,59.3-0.4,88.9c0,3.5-0.3,6.9-0.7,10.4c-0.4,4.7-0.9,9.3-1.5,14.5c7.6,0.5,14.4,0.9,20.6,1.3
			c1.1-7.2,2.7-13.2,2.7-19.1c-0.3-22.6-1-45.2-1.8-67.7c-0.5-15.7-1.3-31.4-2-47c-0.1-1.3-0.7-2.6-0.6-3.8c0.8-6,1.2-12.2,3-17.9
			c0.7-2.2,4.7-4.4,7.4-4.7c10.2-0.8,20.5-1,30.7-1.2c9.1-0.2,18.2,0,27.5,0c-0.7-10-1.1-19.5-2.2-28.9c-0.7-6-2.3-12-3.9-17.9
			c-0.4-1.6-2.2-3.9-3.5-4c-11.7-1.3-23.5-3-35.3-3c-12.3,0-24.6,1.7-36.8,2.8c-10.3,0.9-20.5,1.7-30.8,3.1
			C561.2,554.9,546.9,557.2,532,559.3z"/>
		<path class="st0" d="M924,740.9c3.4-10.5,6.8-21,10.1-31.5c5.9-18.4,11.9-36.8,17.9-55.2c1.4-4.4,2.8-8.8,4.2-13.2
			c0.3-0.3,0.5-0.7,0.8-1c2.4-8.2,4.7-16.4,7.2-24.5c7.4-23.9,14.9-47.7,22.4-71.5c0.8-2.6,1.6-5.2,2.4-7.8c0.9-2.7,1.1-6.9,2.9-7.8
			c3.7-1.8,8.3-1.9,12.5-2.7c2.1,18.3,10.1,33.7,18,49.1c7.8,15.3,16.9,29.9,24.9,45c5.9,11.1,11,22.7,16.7,33.9
			c4.8,9.5,9.9,18.8,14.8,28.1c-0.3,0.2-0.6,0.4-0.9,0.7c0.4,0.1,0.8,0.3,1.1,0.4c10.3,17.1,20.6,34.2,30.9,51.2
			c0.6,1,1.4,1.8,2.2,2.7c7,7.7,8.6,17.7,10.6,27.2c2,9.2-3.2,16.3-12.9,18.9c-14.1,3.8-28.4,3.8-42.8,2.1c-1-0.1-2-0.1-3-0.1
			c-10.1-0.3-20.2-0.5-30.2-1c-14-0.6-28-1.5-42-1.9c-14.7-0.5-29.5-1.6-44.2-0.7c-10,0.6-19.1-1.1-28.3-4.3
			c-5.5-1.9-6.3-3.4-4.4-9.1c2.5-7.2,5.2-14.3,7.7-21.5c0.5-1.4,0.3-3,0.4-4.4C923.5,741.6,923.7,741.3,924,740.9z M1099.1,767.7
			c-0.2-1-0.1-1.7-0.4-2.3c-10.2-23.1-19.9-46.5-30.8-69.2c-11.2-23.2-23.6-45.7-35.6-68.5c-6.8-12.9-13.8-25.7-20.3-38.7
			c-4.4-8.8-8.3-17.9-12.9-27.9c-2.2,6.3-4,11.8-5.9,17.2c-4.5,13.2-9.1,26.3-13.6,39.5c-4.1,12.3-8,24.6-12,36.8
			c-2,6-4.6,11.7-6.2,17.8c-1.5,5.7-4.7,10.6-6.3,16.5c-4.1,15.1-9.9,29.8-15.1,44.7c-0.5,1.3-1.8,2.4-2.3,3
			c-0.2,2.3-0.2,4.1-0.7,5.8c-1.5,5.1-3.5,10-4.8,15.1c-0.3,1.3,0.8,4.2,1.6,4.3c5.6,0.9,11.2,1.7,16.9,1.7
			c19.6,0.3,39.3-0.1,58.9,0.4c15.6,0.5,31.2,2,46.8,3.1c4.9,0.3,9.9,0.4,14.8,1.1C1080.5,769.6,1089.8,769.5,1099.1,767.7z"/>
		<path class="st0" d="M1245,785.8c-7.4-0.5-14.2-2.6-19.6-8.1c-0.7-0.7-1.4-2-1.4-2.9c0.6-7.8,1.4-15.6,2.2-23.4
			c0.5-4.4,1.5-8.7,1.7-13.1c0.8-22.9,1.6-45.7,1.8-68.6c0.2-21.4-0.5-42.9-0.7-64.3c-0.1-11.6,0.1-23.3-0.1-34.9
			c-0.2-11.6-0.7-23.2-0.9-34.8c-0.1-5.4,3.3-9.3,8.7-9.8c13.2-1.1,26.5-2,39.7-3c2.5-0.2,3.6,0.7,4.9,3.3
			c6.6,13.4,7.3,27.6,6.6,42.1c-0.7,14.6-2.5,29.2-2.8,43.8c-0.2,12.7,1,25.4,1.6,38.1c0.4,7.9,0.9,15.8,1.2,23.7
			c0.7,15.7,1.3,31.4,2.1,47c0.2,3.1,0.9,6.2,1.4,9.8c10.9,2.9,22.2,5.5,34.1,3.3c4.4-0.8,9-0.3,13.5,0c1.2,0.1,2.9,1.7,3.2,2.9
			c1.5,5.6,3.1,11.3,3.6,17.1c0.8,11.1-1.4,22.4,3,32.7c-8.1,7.6-17.2,4.8-26.2,3.6c-4.4-0.6-8.8-1.1-13.2-1.2
			c-14.3-0.2-28.7,0.1-43-0.2c-6.5-0.2-13-1.3-19.5-2.1c-0.3-0.8-0.7-1.6-1-2.4C1245.7,784.9,1245.3,785.3,1245,785.8z
			 M1331.1,750.5c-3.2,0.6-5.6,1.4-8,1.5c-13.7,0.4-27.4,0.6-40.7-3.1c-5.5-1.5-10.3-4.1-11.8-11.3c-1.7-7.9-1.1-15.4-0.7-23.3
			c0.9-16.5,1.2-33.2,1.1-49.7c-0.4-39-1.3-77.9-1.9-116.9c0-3.1,0.5-6.3,0.9-10.1c-9,0.9-17.4,1.7-25.9,2.6
			c-0.4,7.3-0.1,14.1-1.2,20.8c-2.1,12.7-0.4,24.6,5.5,36.1c2.6,5,4.9,10.4,3.5,16.4c-4.2,17.4-7.8,34.8-7.1,52.8
			c0.5,11.8,0.3,23.6,0.3,35.5c0,8,0.2,16-0.1,24c-0.5,13.3-1.4,26.6-2.2,40.8c12.8,1.9,25.1,4.2,37.5,5.4c11.5,1.1,23.1,1,34.6,1
			c5,0,10-1,14.9-2c1.3-0.3,3.2-2.4,3.1-3.6C1332.6,761.9,1331.8,756.6,1331.1,750.5z"/>
		<path d="M704,263.2c11.2-1.1,22.6-1.1,33.4-3.5c7.3-1.7,14.3-0.9,21.4-1.6c7.9-0.8,15.8-2.1,23.7-2.7c3.3-0.3,7,0.1,9.9,1.4
			c1.2,0.6,1,4.6,1.1,7.1c0.1,2.7-0.1,5.5-0.2,8.2c0,0.8,0.1,1.9-0.4,2.5c-5.6,7.2-11.3,14.3-16.9,21.4c-0.2-0.3-0.4-0.6-0.6-0.9
			c-0.1,0.4-0.3,0.8-0.4,1.1c0,0.3-0.1,0.6-0.2,0.9c-0.3,0.4-0.5,0.7-0.8,1.1c-6.6,8.6-13.9,16.4-24,21c-1.5-0.4-2.9-0.7-4.9-1.2
			c0.4,2,0.7,3.1,0.9,4.2c-1.2,1-2.5,1.9-3.7,2.9c-1.1-0.4-3.2-1.2-3.3-1.1c-1.1,2.3-2,4.8-2.9,7.2c-2,3-4.1,6-6.1,9
			c-3.6,0.2-5.3,1.4-2.9,5c0.5,5.3,1.1,10.6,1.6,16c-1.1,0.7-2.3,1.4-3.4,2c1.2,1,2.3,2,3.5,3c1.4,19.1,3,38.3,4,57.4
			c0.4,7.5-0.6,15-1,22.6c-3.7,1.2-3.8,2.9-0.7,5c-1.8,11-3.5,22-5.3,33c-4,0.5-1.9,3.1-1.8,5.1c-3,10.3-7.3,20-14,28.4
			c-2.2,2.7-4.8,2.7-7.9,2.1c-14.8-3.2-22.8-13.6-28-26.7c-2.4-6.1-3.5-12.6-5.2-18.9c0.9-1.2,2.4-2.3,2.6-3.6
			c0.5-2.5,0.4-5.2,0.5-8.4c-1.4,0-3.3,0-5.2,0c-0.6-7.3-1.1-14.7-1.7-22c0.9-0.8,1.8-1.6,2.8-2.3c-1.3-0.9-2.5-1.8-3.8-2.7
			c-0.7-12.8-1.4-25.5-2.2-38.3c-0.3-4.9-0.6-9.8-0.8-14.7c1.3-0.2,2.5-0.5,2.9-0.5c-0.4-4-0.9-7.1-1-10.2c-0.1-2.7-0.8-4.5-3.9-4.3
			c-0.2-4.4,0.7-9.3-0.8-13.2c-1.6-4.1-5.3-7.4-8.2-11.1c-1-1.3-2.1-2.4-3.2-3.7c-0.3-0.4-0.5-0.7-0.8-1.1c-0.4-0.4-0.8-0.8-1.2-1.2
			c-0.3-0.3-0.5-0.5-0.8-0.8c-7.9-9.7-15.9-19.4-23.8-29.1c-0.4-0.4-0.9-0.8-1.3-1.2c-2.8-4.9-5.8-9.7-8.5-14.7
			c-2.8-5.2-5.2-10.5-7.9-15.8c-1.8-3.7-4.2-7.2-5.5-11c-1.1-3.5,2-5.3,4.6-6.4c8.7-3.7,18-4.1,27.3-3.7c8.4,0.4,16.9,1.8,25.1,0.6
			c8.3-1.2,15.7-0.7,22.6,3.5c7.2,4.4,15,5.4,23.1,5c-0.3,0.7-0.9,1.5-0.9,2.2c0.1,1.5,0.4,2.9,0.7,4.4c1.1-0.9,2.3-1.7,3.1-2.9
			C703.6,265.9,703.7,264.4,704,263.2z M715.9,445c0-11.5,0.1-23,0.1-34.4c0-6.1,0.1-12.3,0-18.4c-0.3-12.7-0.7-25.5-1-38.2
			c-0.1-2.7,0.5-5.1-0.6-8.1c-1.4-3.7-1.4-9.1,0.4-12.6c2.2-4.4,6.7-7.6,10.2-11.4c1.1,0.1,2.5,0.7,3.4,0.3c1.6-0.7,2.7-2.6,4.3-3
			c5-1.3,5.1-4.3,3.4-8.2c4-3.7,8-7.4,12-11.1c1.2,1,2.3,2.2,3.6,2.9c0.3,0.2,2.3-1.7,2.1-2c-0.7-1.4-1.8-2.6-2.8-3.9
			c7.5-5.7,14.9-11.6,18.2-20.9c0.5-0.3,1-0.6,1.4-0.9c-0.6-0.4-1.1-0.7-1.7-1.1c-5.9,1.1-11.8,0.4-17.8,1.5
			c-11.5,2.2-23.6,1.6-35.4,2.5c-5.1,0.4-10.1,2.1-15.2,2.7c-3.8,0.4-8.2,0.8-11.6-0.5c-14.3-5.8-28.4-11.4-44.3-10.4
			c-9,0.6-18.1-0.5-27.2-0.5c-0.5,0-1.8,2.4-1.5,3.1c3.6,6.5,7.1,13,11.2,19.1c3.9,5.7,9.1,10.6,12.7,16.4
			c6.6,10.7,16.3,18.5,24.2,28c3.9,4.6,9.2,7.7,9.9,14.4c0.6,5.7,1.6,11.5,2,17.2c0.6,10.2,1,20.4,1.2,30.7c0.2,9.8,0,19.7,0,29.5
			c0,4-0.3,8,0.2,11.9c1,8.4,2.4,16.7,3.7,25c1.8,11.7,6,22.4,13.6,31.5c5.2,6.1,8.9,5.3,12.3-2c0.4-0.9,0.7-1.8,1-2.7
			c4.6-13.7,6.8-27.9,7.2-42.3c1.2-0.9,2.3-1.8,3.5-2.7C717.7,445.8,716.8,445.4,715.9,445z"/>
		<path class="st0" d="M1127,631.5c0-23.3,0-49.6,0-76c0-5.7,4.1-11,9.4-12.2c3.5-0.8,7.1-1,10.7-1.3c8.3-0.7,16.6-1.7,24.9-1.8
			c2.2,0,5.8,2,6.5,3.9c2.1,5.8,3.7,11.8,4.3,17.9c1.4,14.9,2.2,29.8,3.1,44.7c0.4,6.7,0.1,13.6,1.2,20.2c1,6.1,3.6,12,5.4,18
			c1.6,5.1,4.4,9.7,3.6,15.6c-0.7,4.9,0.4,10.1,1.1,15.1c1.4,11,3,21.9,4.8,32.9c1.4,8.9,3.2,17.8,4.7,26.8
			c0.9,5.1,1.9,10.3,2.2,15.4c0.2,2.6-1.2,5.2-1.7,7.8c-0.7,3.1-1,6.3-1.9,9.3c-1.7,5.6-7.1,5.5-11.3,5.9c-15,1.7-30,3-45,4.1
			c-8.6,0.6-16.2-6.2-16-15.3c0.1-2.4-0.9-4.8-1.3-7.2c-0.6-3.5-1.3-7-1.5-10.6c-0.5-7.5-1.1-15.1-1-22.6c0.3-14.5,2-29,1.7-43.5
			C1130.5,664,1128.5,649.3,1127,631.5z M1191.4,758.2c-0.5-10.8-0.3-20.9-1.6-30.8c-1.6-12.4-4.3-24.6-6.8-36.8
			c-4.1-19.7-8.2-39.3-12.8-58.9c-3.3-14.1-5.7-28.2-5.1-42.8c0.3-7.9,0.8-15.9,1-23.8c0.2-7.4-0.6-8.2-8-8.1
			c-4.9,0.1-9.8,0.8-15.1,1.3c0.4,5.6,0.7,11.2,1.2,16.7c1.2,13,2.8,26,3.9,39c0.9,11.2,1.4,22.3,2.1,33.5c1,16.6,2.2,33.2,2.9,49.7
			c0.7,15.9,0.7,31.8,1.1,47.7c0.1,4.9,0.8,9.8,1.2,15.6C1167.2,759.8,1178.8,759,1191.4,758.2z"/>
		<path class="st1" d="M932.7,874.2c5.6,7,11,14,16.8,20.7c5.4,6.3,7.2,13,2.7,21.4c-9.3-0.4-19.2-1.5-29-1.2
			c-16.8,0.4-33.5,1.6-50.3,2.4c-2.7,0.1-5.5,0-8.1-0.7c-1.2-0.3-2.6-2.4-2.6-3.7c-0.3-6.5,0.3-13-0.2-19.5
			c-0.5-6.8-2-13.4-2.6-20.2c-0.4-4.4-0.2-9-0.3-13.4c-0.2-10.8-0.5-21.5-0.7-32.3c-0.2-8.1-0.1-16.2-0.5-24.3
			c-0.3-7.2,5-8.2,9.9-8.2c15.9,0,32.1-2.1,47.7,2.9c13.3,4.3,24,12.9,31,24.6c5.6,9.4,7.5,20.5,3.3,31.4c-1.1,2.9-4.4,4.9-6.6,7.5
			C939.7,865.5,936.4,869.7,932.7,874.2z M935.6,904.5c-1.3-2.6-1.9-4.5-3-6.1c-5-6.9-9.9-13.7-15.1-20.4c-5.6-7-4.5-11.2,4-13.8
			c2.7-0.8,5.8-1.7,7.8-3.5c8.5-7.7,10.4-25.4,4.4-34.7c-4.5-7-10.9-11.7-18.5-14.2c-8.7-2.9-17.7-5.2-26.7-6.6
			c-5-0.7-10.4,1-15.5,1.9c-1,0.2-2.3,1.4-2.5,2.3c-0.7,3.2-1.5,6.5-1.3,9.6c0.8,12.3,2.4,24.5,2.8,36.8c0.5,15.2,0.1,30.5,0.1,45.9
			C893.5,905.9,914,903.6,935.6,904.5z"/>
		<path class="st1" d="M1163.1,853.9c-1.3,8.9-2.3,17.9-4.1,26.7c-2.2,11.1-9.6,19-17.8,26.4c-10.8,9.7-23.8,11.7-37.2,9.8
			c-10.6-1.5-19.4-7.2-26-16.1c-7.5-10.1-12.5-21.2-15.1-33.6c-3.6-17.7-2.2-34.9,3.5-52c1-3,0-6.6,0.9-9.6c0.5-1.8,2.8-4.2,4.5-4.3
			c7.1-0.5,14.3-0.2,21.4-0.2c1.8,0,3.7,0,5.5,0c14.2-0.3,28.5-0.3,42.7-1.2c6.3-0.4,9.4,2.7,11,7.4c3.3,9.9,6.1,20.1,8.5,30.2
			c1.2,5.2,1.1,10.8,1.6,16.2C1162.6,853.7,1162.9,853.8,1163.1,853.9z M1115.9,812.5c0,3.4-0.1,5.9,0,8.3c0.3,7.7,1.1,15.3,0.9,23
			c-0.1,3-1.7,6.4-6.2,6.2c-4.1-0.2-5.2-3-5.5-6.2c-0.8-7.6-1.5-15.3-2.1-22.9c-0.2-2.9-0.4-5.1-4.3-5c-3.2,0.1-6.5-0.4-9.6-1.4
			c-4.5-1.4-7.2,0.2-9.4,3.9c-4.9,8.1-7.6,17.2-7.5,26.4c0.1,8.3,1.5,16.9,3.9,24.9c2.1,7.3,4.5,15.8,9.7,20.8
			c13.8,13.4,29,16,46.8,4.1c5-3.3,11.5-6.7,9.6-15c-0.2-0.7,0.8-1.6,1.3-2.4c1.6-2.8,3.6-5.4,4.6-8.4c6.2-18.1,3.1-35.4-4.7-52.3
			c-0.5-1.2-2.3-2.4-3.5-2.6C1132.1,813.4,1124.4,813,1115.9,812.5z"/>
		<path class="st0" d="M708.2,917c-2.5,0-5-0.1-7.5,0c-4.7,0.1-8.2-2.2-10.6-5.9c-3.9-6.1-7.5-12.4-10.8-18.9
			c-1.3-2.5-2-5.5-2.1-8.2c-0.3-7.2,0.1-6.9,7.6-8.1c10-1.6,20.1-3.2,29.7-6.4c8.2-2.7,8.4-7.7,1.3-13.1
			c-5.6-4.4-11.5-8.4-17.4-12.3c-5.1-3.4-8.5-7.2-8.7-14.2c-0.3-14.9,5.3-26.9,16.8-35.7c8.1-6.2,17.6-10.5,28.2-11.1
			c6.5-0.4,15.6,9,15.1,15.6c-0.1,1.2-1.5,2.6-2.7,3.5c-4.4,3-9.7,5.1-13.1,8.9c-10.8,12-8.9,15.1,2,23.4
			c5.5,4.2,11.5,7.8,17.4,11.4c8.7,5.3,13,13.9,15.1,23c2.5,10.3,0.4,21.1-7.4,28.7c-5.8,5.6-13.6,9.2-20.8,13.1
			c-3.9,2.1-8.4,3.3-12.8,4.2c-6.4,1.3-12.9,1.9-19.3,2.8C708.2,917.4,708.2,917.2,708.2,917z M689,886.9c0.8,2.2,1.4,3.8,2,5.3
			c2.8,6.8,7.8,12.1,15,12.6c18.5,1.3,35.2-2.6,47.4-18.5c6.1-7.9,5.7-22-1.4-28.7c-0.3-0.3-0.9-0.4-1.3-0.6
			c-6.6-4.3-13.4-8.3-19.7-13.1c-8.8-6.7-17.3-13.4-18.3-26.1c-0.3-3.8,0.1-6.8,1.9-9.5c1.7-2.5,4.3-4.5,6.9-6.2
			c3.9-2.5,8.1-4.6,12.3-6.9c-10.6-0.4-19.3,2.5-25.4,9.2c-5.4,5.9-9,12.8-7.2,21.3c0.6,2.9,1.4,6.5,3.4,8.1
			c6.1,4.8,12.8,8.8,19.3,13.2c6,4.1,9.2,10.9,7.1,16.4c-2.7,7-5.5,14.2-13.6,16.6C708.1,882.4,698.6,884.5,689,886.9z"/>
		<path class="st0" d="M794,842c-7.7,0-14.8,0-21.9,0c-8.7,0-10.6-1.7-11.1-10.4c-0.3-6.3-0.2-12.7,0-19c0.1-4.5,3-6.5,10.4-7.6
			c12.6-2,25.2-4.7,37.9-5.8c11.9-1,24-0.4,35.9-0.1c5.3,0.2,6.6,5,7.4,9.1c2.1,9.8,1.6,19.6-0.9,29.3c-0.4,1.4-2.4,3.2-3.8,3.3
			c-8.4,0.8-16.8,1.1-26.7,1.6c0,9.6,0,19.7,0,29.8c-0.1,11.4,0.7,22.9-0.5,34.1c-1.2,10.8-2.3,10.9-13.4,11.5c-2,0.1-4,0.1-6,0
			c-4.8-0.3-7.2-3-7.4-7.7c-0.3-5.9-1-11.8-0.9-17.7c0.1-15.6,0.6-31.1,0.9-46.7C794,844.3,794,842.9,794,842z M842.4,831
			c-0.5-4.7-0.8-9-1.4-13.2c-0.9-6.5,0-8.8-9.6-8.8c-10.9,0-21.9,0.2-32.7,1.1c-9.2,0.7-18.3,2.5-27.6,3.9c0,4.5-0.1,8.7,0,12.8
			c0.2,3.4,1.7,5.6,5.6,5.2c5.3-0.6,10.7-1.7,16-1.7c4.1,0,8.6,0.5,12.2,2.2c1.4,0.6,1.1,5.3,1.1,8.1c0,2.3-0.9,4.5-0.9,6.8
			c-0.1,19.7,0,39.5,0,59.4c1.4,0,3.7,0,7,0c0-10.7,0.3-21.1-0.1-31.5c-0.4-12.2-1.4-24.3-1.8-36.5c-0.1-1.7,0.9-4.5,2.2-5.1
			c3.3-1.4,7-2.3,10.6-2.6C829,830.7,835.2,831,842.4,831z"/>
		<path class="st0" d="M1162,796c11.9-2.1,23.9,1.2,35.7,4.2c8.3,2.1,16.4,5.4,24,9.3c10.3,5.3,19.7,12.1,27.1,21.4
			c14.4,18,13.9,48-1.6,64.9c-7.5,8.3-16.7,14.4-28.2,16.4c-4.2,0.7-8,3.8-12.2,4.2c-9.1,0.8-18.2,0.9-27.3,0.4
			c-5.2-0.3-6.9-4.1-7.7-11.2c-1.5-13.9-3.4-27.8-4.9-41.7c-0.9-8.5-1.2-17.1-2-25.6c-0.8-8.7-2.2-17.4-2.9-26.2
			C1161.7,806.9,1162,801.8,1162,796z M1245.2,844c-2.1-3.3-4.1-6.6-6.2-9.9c-0.3-0.4-0.5-0.7-0.8-1.1c-3-2.7-5.8-5.8-9.2-7.9
			c-4.8-3.1-10-5.6-15.2-8.1c-4.6-2.2-9.2-4.4-14-5.9c-4.1-1.3-8.5-1.8-12.8-2.6c-4.8-0.9-9.6-1.8-14.6-2.8
			c-0.1,1.7-0.4,2.6-0.3,3.4c0.9,8.9,1.9,17.9,2.9,26.8c0.5,4.9,0.9,9.8,1.7,14.6c1.3,7.3,3.1,14.5,4.3,21.8c1.5,9.5,2.7,19,4,28.6
			c1,7.1,3,8.4,9.8,6.2c6.6-2.1,13.1-4.9,19.9-5.8c10.6-1.5,18.8-6.2,25.5-14.2c0.3-0.3,0.5-0.6,0.8-1c8.7-12.8,10.7-26.4,5-41
			C1245.7,844.7,1245.5,844.3,1245.2,844z"/>
		<path class="st1" d="M1003.9,805.2c10.4-1.3,19.1,1.9,27.2,7.5c0.8,0.6,2.2,0.3,3.3,0.6c1.2,0.3,2.7,0.4,3.4,1.2
			c7.5,9.1,12.9,19.2,16.7,30.6c3,8.8,3.5,17.5,4.4,26.3c1.2,12.2-4.9,22.2-12.2,31.6c-16.2,20.7-53,18.7-69.3,2
			c-8.4-8.6-15.5-18.2-19.1-29.5c-4.9-15.5-2.1-30.5,4.9-45.2c6.6-13.8,18-20.4,31.3-24.8C997.4,804.4,1001.1,805.2,1003.9,805.2z
			 M1010,907.4c7.4-2.1,15-3.6,22-6.5c10.8-4.4,18.3-16.7,16.7-26.5c-1.6-10-4-19.9-5.6-29.9c-3-17.9-22.5-30.6-38-30.3
			c-22.7,0.5-37.7,16.6-39.1,40.5c-0.7,11.9,3.2,22.5,10.2,31.9C984.5,897.8,994.6,906.1,1010,907.4z"/>
		<path d="M666.9,462c1.9,0,3.7,0,5.2,0c-0.1,3.1,0,5.8-0.5,8.4c-0.3,1.3-1.7,2.4-2.6,3.6C668.2,470,667.6,466,666.9,462z"/>
		<path d="M659.2,367c3.1-0.2,3.8,1.6,3.9,4.3c0.1,3.1,0.6,6.2,1,10.2c-0.4,0.1-1.6,0.3-2.9,0.5C660.5,377,659.8,372,659.2,367z"/>
		<path d="M1358.1,466c-3.7-1.4-2.5-3.6-0.7-5.6c1.3-1.5,3.1-2.6,5.2-4.3c0.4,0.9,1,1.9,1.5,2.9
			C1362.1,461.4,1360.1,463.7,1358.1,466z"/>
		<path d="M1181.4,393c3.9,3.8,4.8,10.7,1.8,14C1182.6,402.3,1182,397.7,1181.4,393z"/>
		<path d="M1331,487c0.8-1.7,1.3-3.4,2.3-4.9c0.5-0.8,1.9-0.9,2.6-1.6c2-1.7,2-1.8,3.1,1.6C1336.3,483.7,1333.7,485.4,1331,487z"/>
		<path d="M704,263.2c-0.3,1.3-0.4,2.7-1.1,3.7c-0.7,1.1-2,1.9-3.1,2.9c-0.3-1.5-0.6-2.9-0.7-4.4c0-0.7,0.5-1.5,0.9-2.2
			C701.3,263.2,702.7,263.2,704,263.2z"/>
		<path d="M736.1,331c0.9-2.4,1.8-4.9,2.9-7.2c0.1-0.1,2.1,0.7,3.3,1.1C740.2,327,738.2,329,736.1,331z"/>
		<path d="M1194.2,501c5.6,0.5,7.2,2,6.8,6.8C1198.7,505.5,1196.5,503.3,1194.2,501z"/>
		<path d="M1349.1,474c-1.7-0.2-4.5-0.6-2.1-2.7c2-1.7,5.4-1.7,8.2-2.5C1353.2,470.6,1351.2,472.3,1349.1,474z"/>
		<path d="M1315,281.9c0,0.4,0,0.7,0,1.1c-0.3,0-0.7,0-1,0c-2.2-0.3-4.3-0.6-6.8-0.9c-0.1-0.9-0.1-2-0.2-3.1c0-0.4,0-0.7,0-1.1
			C1309.7,279.2,1312.4,280.6,1315,281.9z"/>
		<path d="M1220,511.1c1.5-1,2.9-2.4,4.5-2.8c0.5-0.1,1.7,2.3,2.5,3.5C1224.7,511.6,1222.3,511.4,1220,511.1z"/>
		<path d="M728.8,366c-1.2-1-2.3-2-3.5-3c1.1-0.7,2.3-1.4,3.4-2C728.7,362.7,728.8,364.3,728.8,366z"/>
		<path d="M1189.2,465c1.2,0.7,2.5,1.5,3.7,2.2c-0.9,0.9-1.8,1.9-2.6,2.8C1189.9,468.3,1189.5,466.7,1189.2,465z"/>
		<path d="M664.2,435c1.3,0.9,2.5,1.8,3.8,2.7c-0.9,0.8-1.8,1.6-2.8,2.3C664.8,438.3,664.5,436.7,664.2,435z"/>
		<path d="M1274,507.8c0.8-1.2,1.6-2.4,2.3-3.7c0.6,1,1.1,2,1.7,3C1276.7,507.4,1275.3,507.6,1274,507.8z"/>
		<path d="M1270,261.2c-1.4,0.5-2.8,1-4.1,1.5c0.1-0.9,0.2-1.8,0.2-2.7C1267.4,260.4,1268.7,260.8,1270,261.2z"/>
		<path d="M727.1,345c-2.4-3.6-0.7-4.9,2.9-5C729,341.7,728.1,343.4,727.1,345z"/>
		<path d="M1291.1,504c0.2-0.9,0.5-1.9,0.7-2.8c1.1,0.5,2.2,1.1,3.2,1.6C1293.7,503.2,1292.4,503.6,1291.1,504z"/>
		<path d="M746,322c-0.2-1.1-0.5-2.1-0.9-4.2c2,0.5,3.4,0.8,4.9,1.2C748.7,320.1,747.4,321.1,746,322z"/>
		<path d="M731.1,451c-3.1-2.2-3-3.9,0.7-5C731.6,447.7,731.4,449.4,731.1,451z"/>
		<path d="M1276,266c-3,0.3-3.1-1.7-3-3.8c1,0.3,2,0.7,3,1C1276,264.1,1276,265.1,1276,266z"/>
		<path d="M724,489.1c-0.2-2-2.3-4.6,1.8-5.1C725.2,485.7,724.6,487.4,724,489.1z"/>
		<path d="M1174.2,325c0.8,0.6,1.7,1.1,2.5,1.7c-0.5,0.4-1,0.9-1.5,1.3C1174.8,327,1174.5,326,1174.2,325z"/>
		<path d="M1229,511.8c0.7-0.6,1.3-1.2,2-1.8c0,0.6,0,1.2,0,1.8C1230.3,511.8,1229.7,511.8,1229,511.8z"/>
		<path d="M1252.6,510.8c1.1-2.7,2.3-2.3,3.4,0C1254.9,510.8,1253.7,510.8,1252.6,510.8z"/>
		<path class="st2" d="M1329,290.9c-0.7-0.5-1.4-1.1-2.1-1.6C1327.7,289.8,1328.4,290.3,1329,290.9z"/>
		<path d="M1248.5,510.8c0.3-0.8,0.7-1.6,1-2.4c0.3,0.2,0.7,0.4,1,0.6c-0.5,0.6-1,1.1-1.5,1.7c0,0-0.2,0.1-0.2,0.1L1248.5,510.8z"/>
		<path class="st3" d="M1307,277.9c0,0.4,0,0.7,0,1.1c-0.7-0.9-1.3-1.9-2-2.8C1305.7,276.7,1306.4,277.3,1307,277.9z"/>
		<path class="st3" d="M1245,785.8c0.3-0.5,0.7-0.9,1-1.4c0.3,0.8,0.7,1.6,1,2.4C1246.3,786.5,1245.7,786.1,1245,785.8z"/>
		<path d="M1287.1,505c-0.2-0.5-0.3-1-0.5-1.5c0.5,0.4,0.9,0.8,1.4,1.3C1287.7,505,1287.4,505,1287.1,505z"/>
		<path class="st1" d="M1231,511.8c0-0.6,0-1.2,0-1.8c0.7,0.6,1.3,1.2,2,1.8C1232.3,511.8,1231.7,511.8,1231,511.8z"/>
		<path class="st3" d="M864.8,305c-0.6-0.6-1.2-1.2-1.9-1.8C863.6,303.8,864.2,304.4,864.8,305z"/>
		<path d="M1372.1,448c0.3-0.7,0.7-1.3,1-2C1372.8,446.7,1372.4,447.4,1372.1,448z"/>
		<path class="st1" d="M976,255.2c-0.5,0.4-0.9,0.8-1.4,1.3c-0.2-0.4-0.4-0.8-0.6-1.3C974.7,255.2,975.3,255.2,976,255.2z"/>
		<path class="st4" d="M775,296.1c0.1-0.4,0.3-0.8,0.4-1.1c0.2,0.3,0.4,0.6,0.6,0.9C775.7,295.9,775.4,296,775,296.1z"/>
		<path class="st0" d="M1079.1,683c-0.4-0.1-0.8-0.3-1.1-0.4c0.3-0.2,0.6-0.4,0.9-0.7C1078.9,682.2,1079,682.6,1079.1,683z"/>
		<path class="st2" d="M957,639.9c-0.3,0.3-0.5,0.7-0.8,1C956.5,640.6,956.7,640.3,957,639.9z"/>
		<path class="st3" d="M924,740.9c-0.3,0.4-0.5,0.7-0.8,1.1C923.5,741.6,923.7,741.3,924,740.9z"/>
		<path class="st4" d="M774,298.1c0.3-0.4,0.5-0.7,0.8-1.1C774.6,297.4,774.3,297.7,774,298.1z"/>
		<path class="st2" d="M830,245.2c-0.4,0.3-0.7,0.5-1.1,0.8C829.3,245.7,829.6,245.5,830,245.2z"/>
		<path d="M1259,510.7c0.4-0.2,0.7-0.5,1.1-0.7C1259.8,510.3,1259.4,510.5,1259,510.7z"/>
		<path class="st2" d="M646.2,338c0.3,0.4,0.5,0.7,0.8,1.1C646.7,338.7,646.4,338.4,646.2,338z"/>
		<path class="st2" d="M644.2,336c0.3,0.3,0.5,0.5,0.8,0.8C644.7,336.5,644.5,336.3,644.2,336z"/>
		<path class="st2" d="M828,246.2c-0.2,0.3-0.5,0.5-0.7,0.8C827.5,246.7,827.7,246.5,828,246.2z"/>
		<path class="st3" d="M619.1,305.7c0.4,0.4,0.9,0.8,1.3,1.2C619.9,306.6,619.5,306.1,619.1,305.7z"/>
		<path class="st2" d="M1118,300.8c-0.3-0.3-0.6-0.5-0.9-0.8C1117.4,300.3,1117.7,300.5,1118,300.8z"/>
		<path d="M1349,328.1c-2.7-3-5.3-6.1-8-9.1c1.3,0,2.6-0.3,3.8,0c1.4,0.4,2.7,1.4,4.6,1.3c0.7,1.5,1.3,3,2,4.4
			C1350.5,325.9,1349.7,327,1349,328.1z"/>
		<path d="M1330,467.2c0.4-0.4,0.8-0.8,1.2-1.2c0.6-0.3,1.2-0.7,1.8-1c2.4-2.1,4.8-4.3,7.2-6.4c2.2,4.5-0.7,5.6-4.2,6.4
			c-0.3,0-0.7,0-1,0c-0.6,1.1-1.2,2.3-2,3.2c-0.5,0.6-1.4,1-2,1.5C1330.7,468.9,1330.3,468.1,1330,467.2z"/>
		<path d="M1197,261.8c-3-0.7-6-1.3-9-2c0.5-1.5,1-3.1,2.1-6.3C1192.8,256.9,1194.9,259.3,1197,261.8z"/>
		<path d="M1227,266.8c-3.3-0.7-6.7-1.3-10-2c1-0.9,2.3-2.8,3-2.6C1222.7,263,1226.7,262.2,1227,266.8z"/>
		<path d="M1276,483.2c4.3-1,8.7-2,13-3c-2.2,1.2-4.4,2.4-6.7,3.4c-1.1,0.5-2.4,0.9-3.5,0.8C1277.9,484.4,1276.9,483.6,1276,483.2z"
			/>
		<path d="M1301,478.9c2.3-0.6,4.7-1.1,7-1.7c-0.8,1.9-1.6,3.8-2.3,5.6C1304.1,481.6,1302.5,480.2,1301,478.9z"/>
		<path d="M1319,473.3c2.3-1.1,4.6-2.3,7-3.4c0.2,2.8-0.2,5.5-3.5,5.9C1321.4,475.9,1320.2,474.2,1319,473.3z"/>
		<path d="M1195,360.9c0.3,1.7,0.5,3.4,0.8,5.1C1195.6,364.3,1195.3,362.6,1195,360.9z"/>
		<path d="M1276.9,265.6c0.7,0.7,1.5,1.4,2.2,2.1c-0.4,0.4-0.9,0.9-1.3,1.3c-0.9-0.7-1.8-1.4-2.7-2.2
			C1275.7,266.5,1276.3,266,1276.9,265.6z"/>
		<path d="M1210.8,442c0.1,1.3,0.1,2.7,0.2,4C1208.2,444.8,1208.2,443.5,1210.8,442z"/>
		<path d="M1196.1,371c0.3,1.3,0.5,2.7,0.8,4C1196.6,373.7,1196.3,372.3,1196.1,371z"/>
		<path d="M1352,332c-0.7-1-1.4-2-2.1-3C1351.9,329.1,1354.2,329,1352,332z"/>
		<path d="M1196.8,379c0.1,0.7,0.2,1.3,0.3,2c-0.9-0.1-1.7-0.2-2.6-0.4c-0.1-0.3-0.1-0.5-0.2-0.8
			C1195.2,379.5,1196,379.3,1196.8,379z"/>
		<path d="M1189.8,305c0,1,0,2,0,3c-0.6-0.6-1.1-1.2-1.7-1.7C1188.7,305.8,1189.3,305.4,1189.8,305z"/>
		<path d="M1190.8,314c0,0.7,0,1.3,0,2c-0.5-0.3-1-0.7-1.4-1C1189.9,314.7,1190.4,314.3,1190.8,314z"/>
		<path d="M1340.6,458.2c0.5-0.4,0.9-0.8,1.4-1.2c0.1,0.5,0.2,1,0.3,1.5C1341.7,458.4,1341.2,458.3,1340.6,458.2z"/>
		<path class="st3" d="M1339,317.7c-0.2-0.2-0.5-0.5-0.7-0.7C1338.5,317.3,1338.7,317.5,1339,317.7z"/>
		<path class="st3" d="M1314,283c0.3,0,0.7,0,1,0C1314.7,283,1314.3,283,1314,283z"/>
		<path d="M1314.9,475c0.4-0.2,0.7-0.5,1.1-0.7C1315.6,474.5,1315.3,474.7,1314.9,475z"/>
		<path class="st2" d="M1335,465c0.3,0,0.7,0,1,0C1335.7,465,1335.3,465,1335,465z"/>
		<path class="st3" d="M1337,315.8c-0.4-0.3-0.8-0.5-1.2-0.8C1336.2,315.3,1336.6,315.5,1337,315.8z"/>
		<path d="M725,321.9c3.7-3.6,7.4-7.3,11-10.9c1.8,3.9,1.6,6.9-3.4,8.2c-1.6,0.4-2.7,2.3-4.3,3C727.4,322.6,726.1,322,725,321.9z"/>
		<path d="M748,299.9c1-1,2-2,3-3c1,1.3,2.1,2.5,2.8,3.9c0.1,0.3-1.8,2.1-2.1,2C750.2,302.1,749.1,300.9,748,299.9z"/>
		<path d="M715.2,449c0.2-1.3,0.5-2.7,0.7-4c0.9,0.4,1.9,0.9,2.8,1.3C717.5,447.2,716.3,448.1,715.2,449z"/>
		<path class="st4" d="M769.2,276c-0.1-0.7-0.1-1.3-0.2-2c0.6,0.4,1.1,0.7,1.7,1.1C770.1,275.4,769.7,275.7,769.2,276z"/>
		<path class="st4" d="M1239,834.1c-0.3-0.4-0.5-0.7-0.8-1.1C1238.4,833.4,1238.7,833.7,1239,834.1z"/>
		<path class="st4" d="M1246,845c-0.3-0.3-0.5-0.7-0.8-1C1245.5,844.3,1245.7,844.7,1246,845z"/>
		<path class="st4" d="M1240.2,887c0.3-0.3,0.5-0.6,0.8-1C1240.7,886.3,1240.5,886.7,1240.2,887z"/>
		<path class="st2" d="M1333,465c-0.6,0.3-1.2,0.7-1.8,1C1331.8,465.7,1332.4,465.4,1333,465z"/>
	</g>
</g>
</svg>
